<svg width="20" height="20" viewBox="0 0 20 20" fill="none" xmlns="http://www.w3.org/2000/svg">
<mask id="path-1-outside-1" maskUnits="userSpaceOnUse" x="-0.602051" y="-0.600098" width="21" height="21" fill="black">
<rect fill="white" x="-0.602051" y="-0.600098" width="21" height="21"/>
<path fill-rule="evenodd" clip-rule="evenodd" d="M16.0795 0.39999C15.0479 0.392698 14.0657 0.841504 13.396 1.62623C12.7263 2.41096 12.4375 3.45146 12.6069 4.46911L0.833439 8.39167C0.587293 8.47468 0.415739 8.69823 0.399247 8.95748C0.382755 9.21672 0.524597 9.46021 0.758239 9.57375L7.25776 12.7417L10.4258 19.2409C10.5327 19.4608 10.7557 19.6002 11.0002 19.6H11.0408C11.301 19.5841 11.5255 19.4119 11.6085 19.1648L15.5304 7.39263C16.8374 7.60014 18.1503 7.05661 18.9282 5.98597C19.7061 4.91533 19.8173 3.49872 19.2161 2.31978C18.6149 1.14084 17.4029 0.39904 16.0795 0.39999ZM11.0008 18.96L7.83696 12.4707C7.77703 12.3369 7.67109 12.229 7.5384 12.1667L1.03952 8.99807L12.7643 5.09151C13.1201 6.09229 13.9075 6.87973 14.9083 7.23551L11.0008 18.96ZM16.0795 6.79999C14.4889 6.79999 13.1995 5.51057 13.1995 3.91999C13.1995 2.32941 14.4889 1.03999 16.0795 1.03999C17.6701 1.03999 18.9595 2.32941 18.9595 3.91999C18.9578 5.50984 17.6694 6.79822 16.0795 6.79999ZM11.5086 8.03873L12.6536 6.89377C12.7792 6.7725 12.9787 6.77423 13.1022 6.89767C13.2256 7.0211 13.2274 7.22069 13.1061 7.34625L11.9611 8.49121C11.8808 8.5744 11.7618 8.60776 11.6499 8.57847C11.538 8.54919 11.4507 8.46182 11.4214 8.34993C11.3921 8.23805 11.4255 8.11908 11.5086 8.03873ZM8.56698 10.9805L10.6038 8.94402C10.6833 8.85758 10.8039 8.82168 10.9178 8.85052C11.0317 8.87936 11.1206 8.96829 11.1494 9.08219C11.1783 9.19608 11.1424 9.31662 11.0559 9.39618L9.01978 11.4333C8.93889 11.5142 8.821 11.5458 8.71051 11.5162C8.60002 11.4866 8.51372 11.4003 8.48411 11.2898C8.4545 11.1793 8.48609 11.0614 8.56698 10.9805ZM2.68977 12.9293C3.17719 13.0372 3.60483 13.3276 3.88497 13.7408C4.16721 14.1976 4.26888 14.7433 4.17009 15.2711C4.11202 15.6235 4.00732 15.9667 3.85873 16.2915C3.97337 16.2869 4.0875 16.2738 4.20017 16.2522C5.48945 16.0074 6.21841 14.6794 6.15441 13.5895C6.14773 13.4751 6.20254 13.3659 6.2982 13.303C6.39387 13.24 6.51585 13.2329 6.6182 13.2843C6.72055 13.3356 6.78772 13.4377 6.79441 13.552C6.87441 14.9107 5.95281 16.5703 4.32081 16.88C4.05718 16.9293 3.78833 16.9445 3.52081 16.9255C3.15748 17.4929 2.73085 18.0172 2.24913 18.4883C1.84584 18.8965 1.39455 19.2542 0.905134 19.5536C0.807323 19.6145 0.684344 19.6181 0.583145 19.563C0.481946 19.508 0.41815 19.4028 0.416111 19.2876C0.414073 19.1724 0.474106 19.065 0.573294 19.0064C1.01808 18.7341 1.42821 18.4088 1.79473 18.0378C2.17823 17.6603 2.52625 17.2485 2.83441 16.8074C2.16104 16.6117 1.54933 16.246 1.05809 15.7456C0.666019 15.4111 0.428126 14.9306 0.399854 14.416C0.433717 13.8687 0.755429 13.3805 1.24497 13.1335C1.68605 12.8929 2.19933 12.8204 2.68977 12.9293ZM3.17873 16.233C3.35462 15.8998 3.47646 15.5407 3.53969 15.1693C3.61251 14.799 3.54511 14.4149 3.35057 14.0915C3.16066 13.8172 2.87431 13.6246 2.54865 13.552C2.44861 13.5301 2.34643 13.5194 2.24401 13.52C2.00327 13.5194 1.7662 13.579 1.55441 13.6935C1.2677 13.8323 1.07309 14.1094 1.03985 14.4263C1.0763 14.7659 1.24592 15.0773 1.51153 15.2922C1.92753 15.7179 2.44685 16.0283 3.01873 16.1933C3.07121 16.208 3.12465 16.2211 3.17873 16.233ZM16.0799 1.78002C15.9032 1.78002 15.7599 1.90836 15.7599 2.06668V4.07335C15.7599 4.23167 15.9032 4.36002 16.0799 4.36002C16.2566 4.36002 16.3999 4.23167 16.3999 4.07335V2.06668C16.3999 1.90836 16.2566 1.78002 16.0799 1.78002ZM15.7599 5.40002C15.7599 5.22329 15.9032 5.08002 16.0799 5.08002C16.2566 5.08002 16.3999 5.22329 16.3999 5.40002V5.72002C16.3999 5.89675 16.2566 6.04002 16.0799 6.04002C15.9032 6.04002 15.7599 5.89675 15.7599 5.72002V5.40002Z"/>
</mask>
<path fill-rule="evenodd" clip-rule="evenodd" d="M16.0795 0.39999C15.0479 0.392698 14.0657 0.841504 13.396 1.62623C12.7263 2.41096 12.4375 3.45146 12.6069 4.46911L0.833439 8.39167C0.587293 8.47468 0.415739 8.69823 0.399247 8.95748C0.382755 9.21672 0.524597 9.46021 0.758239 9.57375L7.25776 12.7417L10.4258 19.2409C10.5327 19.4608 10.7557 19.6002 11.0002 19.6H11.0408C11.301 19.5841 11.5255 19.4119 11.6085 19.1648L15.5304 7.39263C16.8374 7.60014 18.1503 7.05661 18.9282 5.98597C19.7061 4.91533 19.8173 3.49872 19.2161 2.31978C18.6149 1.14084 17.4029 0.39904 16.0795 0.39999ZM11.0008 18.96L7.83696 12.4707C7.77703 12.3369 7.67109 12.229 7.5384 12.1667L1.03952 8.99807L12.7643 5.09151C13.1201 6.09229 13.9075 6.87973 14.9083 7.23551L11.0008 18.96ZM16.0795 6.79999C14.4889 6.79999 13.1995 5.51057 13.1995 3.91999C13.1995 2.32941 14.4889 1.03999 16.0795 1.03999C17.6701 1.03999 18.9595 2.32941 18.9595 3.91999C18.9578 5.50984 17.6694 6.79822 16.0795 6.79999ZM11.5086 8.03873L12.6536 6.89377C12.7792 6.7725 12.9787 6.77423 13.1022 6.89767C13.2256 7.0211 13.2274 7.22069 13.1061 7.34625L11.9611 8.49121C11.8808 8.5744 11.7618 8.60776 11.6499 8.57847C11.538 8.54919 11.4507 8.46182 11.4214 8.34993C11.3921 8.23805 11.4255 8.11908 11.5086 8.03873ZM8.56698 10.9805L10.6038 8.94402C10.6833 8.85758 10.8039 8.82168 10.9178 8.85052C11.0317 8.87936 11.1206 8.96829 11.1494 9.08219C11.1783 9.19608 11.1424 9.31662 11.0559 9.39618L9.01978 11.4333C8.93889 11.5142 8.821 11.5458 8.71051 11.5162C8.60002 11.4866 8.51372 11.4003 8.48411 11.2898C8.4545 11.1793 8.48609 11.0614 8.56698 10.9805ZM2.68977 12.9293C3.17719 13.0372 3.60483 13.3276 3.88497 13.7408C4.16721 14.1976 4.26888 14.7433 4.17009 15.2711C4.11202 15.6235 4.00732 15.9667 3.85873 16.2915C3.97337 16.2869 4.0875 16.2738 4.20017 16.2522C5.48945 16.0074 6.21841 14.6794 6.15441 13.5895C6.14773 13.4751 6.20254 13.3659 6.2982 13.303C6.39387 13.24 6.51585 13.2329 6.6182 13.2843C6.72055 13.3356 6.78772 13.4377 6.79441 13.552C6.87441 14.9107 5.95281 16.5703 4.32081 16.88C4.05718 16.9293 3.78833 16.9445 3.52081 16.9255C3.15748 17.4929 2.73085 18.0172 2.24913 18.4883C1.84584 18.8965 1.39455 19.2542 0.905134 19.5536C0.807323 19.6145 0.684344 19.6181 0.583145 19.563C0.481946 19.508 0.41815 19.4028 0.416111 19.2876C0.414073 19.1724 0.474106 19.065 0.573294 19.0064C1.01808 18.7341 1.42821 18.4088 1.79473 18.0378C2.17823 17.6603 2.52625 17.2485 2.83441 16.8074C2.16104 16.6117 1.54933 16.246 1.05809 15.7456C0.666019 15.4111 0.428126 14.9306 0.399854 14.416C0.433717 13.8687 0.755429 13.3805 1.24497 13.1335C1.68605 12.8929 2.19933 12.8204 2.68977 12.9293ZM3.17873 16.233C3.35462 15.8998 3.47646 15.5407 3.53969 15.1693C3.61251 14.799 3.54511 14.4149 3.35057 14.0915C3.16066 13.8172 2.87431 13.6246 2.54865 13.552C2.44861 13.5301 2.34643 13.5194 2.24401 13.52C2.00327 13.5194 1.7662 13.579 1.55441 13.6935C1.2677 13.8323 1.07309 14.1094 1.03985 14.4263C1.0763 14.7659 1.24592 15.0773 1.51153 15.2922C1.92753 15.7179 2.44685 16.0283 3.01873 16.1933C3.07121 16.208 3.12465 16.2211 3.17873 16.233ZM16.0799 1.78002C15.9032 1.78002 15.7599 1.90836 15.7599 2.06668V4.07335C15.7599 4.23167 15.9032 4.36002 16.0799 4.36002C16.2566 4.36002 16.3999 4.23167 16.3999 4.07335V2.06668C16.3999 1.90836 16.2566 1.78002 16.0799 1.78002ZM15.7599 5.40002C15.7599 5.22329 15.9032 5.08002 16.0799 5.08002C16.2566 5.08002 16.3999 5.22329 16.3999 5.40002V5.72002C16.3999 5.89675 16.2566 6.04002 16.0799 6.04002C15.9032 6.04002 15.7599 5.89675 15.7599 5.72002V5.40002Z" fill="white"/>
<path d="M13.396 1.62623L13.6242 1.82098L13.396 1.62623ZM16.0795 0.39999L16.0774 0.699991L16.0797 0.69999L16.0795 0.39999ZM12.6069 4.46911L12.7017 4.75373L12.9449 4.67271L12.9028 4.41986L12.6069 4.46911ZM0.833439 8.39167L0.738612 8.10705L0.737571 8.1074L0.833439 8.39167ZM0.399247 8.95748L0.698642 8.97652L0.399247 8.95748ZM0.758239 9.57375L0.889682 9.30407L0.889357 9.30392L0.758239 9.57375ZM7.25776 12.7417L7.52743 12.6103L7.48213 12.5174L7.3892 12.4721L7.25776 12.7417ZM10.4258 19.2409L10.6956 19.1097L10.6954 19.1095L10.4258 19.2409ZM11.0002 19.6V19.3H10.9999L11.0002 19.6ZM11.0408 19.6V19.9H11.05L11.0591 19.8994L11.0408 19.6ZM11.6085 19.1648L11.8929 19.2602L11.8931 19.2596L11.6085 19.1648ZM15.5304 7.39263L15.5774 7.09634L15.3262 7.05645L15.2458 7.2978L15.5304 7.39263ZM18.9282 5.98597L18.6855 5.80963L18.6855 5.80963L18.9282 5.98597ZM19.2161 2.31978L19.4834 2.18349V2.18349L19.2161 2.31978ZM7.83696 12.4707L7.56302 12.5934L7.5673 12.6022L7.83696 12.4707ZM11.0008 18.96L10.7311 19.0915L11.0531 19.7518L11.2854 19.0548L11.0008 18.96ZM7.5384 12.1667L7.40691 12.4364L7.41084 12.4382L7.5384 12.1667ZM1.03952 8.99807L0.944688 8.71345L0.247598 8.94571L0.908043 9.26772L1.03952 8.99807ZM12.7643 5.09151L13.047 4.99102L12.9485 4.71393L12.6695 4.80689L12.7643 5.09151ZM14.9083 7.23551L15.1929 7.33036L15.2859 7.05135L15.0088 6.95284L14.9083 7.23551ZM16.0795 6.79999V7.09999L16.0799 7.09999L16.0795 6.79999ZM18.9595 3.91999L19.2595 3.92032V3.91999H18.9595ZM12.6536 6.89377L12.4452 6.67795L12.4415 6.68164L12.6536 6.89377ZM11.5086 8.03873L11.7171 8.25455L11.7208 8.25086L11.5086 8.03873ZM13.1061 7.34625L13.3182 7.55842L13.3219 7.55467L13.1061 7.34625ZM11.9611 8.49121L11.749 8.27905L11.7453 8.2828L11.9611 8.49121ZM11.6499 8.57847L11.7259 8.28825L11.7259 8.28825L11.6499 8.57847ZM11.4214 8.34993L11.1312 8.4259L11.1312 8.4259L11.4214 8.34993ZM10.6038 8.94402L10.8161 9.15635L10.8245 9.14719L10.6038 8.94402ZM8.56698 10.9805L8.35486 10.7684L8.35485 10.7684L8.56698 10.9805ZM11.0559 9.39618L10.8526 9.17525L10.8438 9.1841L11.0559 9.39618ZM9.01978 11.4333L9.23191 11.6454L9.23196 11.6454L9.01978 11.4333ZM8.71051 11.5162L8.63286 11.806H8.63286L8.71051 11.5162ZM8.48411 11.2898L8.19433 11.3674L8.19433 11.3674L8.48411 11.2898ZM3.88497 13.7408L4.14042 13.583L4.13329 13.5725L3.88497 13.7408ZM2.68977 12.9293L2.62475 13.2222L2.62491 13.2222L2.68977 12.9293ZM4.17009 15.2711L3.87514 15.2159L3.87408 15.2223L4.17009 15.2711ZM3.85873 16.2915L3.58592 16.1668L3.38274 16.611L3.87081 16.5913L3.85873 16.2915ZM4.20017 16.2522L4.14421 15.9574L4.14373 15.9575L4.20017 16.2522ZM6.15441 13.5895L5.85492 13.607L5.85493 13.607L6.15441 13.5895ZM6.2982 13.303L6.46312 13.5536L6.46312 13.5536L6.2982 13.303ZM6.79441 13.552L6.49493 13.5695L6.49493 13.5697L6.79441 13.552ZM4.32081 16.88L4.3759 17.1749L4.37676 17.1748L4.32081 16.88ZM3.52081 16.9255L3.54215 16.6262L3.36431 16.6135L3.26817 16.7637L3.52081 16.9255ZM2.24913 18.4883L2.03934 18.2738L2.03574 18.2775L2.24913 18.4883ZM0.905134 19.5536L0.748554 19.2977L0.746626 19.2989L0.905134 19.5536ZM0.416111 19.2876L0.716064 19.2823L0.416111 19.2876ZM0.573294 19.0064L0.725906 19.2647L0.729954 19.2623L0.573294 19.0064ZM1.79473 18.0378L1.58428 17.8239L1.58131 17.827L1.79473 18.0378ZM2.83441 16.8074L3.08034 16.9792L3.32003 16.6361L2.91814 16.5193L2.83441 16.8074ZM1.05809 15.7456L1.27218 15.5355L1.26289 15.526L1.2528 15.5174L1.05809 15.7456ZM0.399854 14.416L0.100426 14.3975L0.0993442 14.415L0.100305 14.4325L0.399854 14.416ZM1.24497 13.1335L1.38019 13.4014L1.3886 13.3968L1.24497 13.1335ZM3.53969 15.1693L3.24523 15.1114L3.24395 15.119L3.53969 15.1693ZM3.17873 16.233L3.11457 16.526L3.3375 16.5748L3.44404 16.373L3.17873 16.233ZM3.35057 14.0915L3.60764 13.9369L3.60269 13.9287L3.59723 13.9208L3.35057 14.0915ZM2.54865 13.552L2.61389 13.2592L2.61286 13.259L2.54865 13.552ZM2.24401 13.52L2.24319 13.82L2.24593 13.82L2.24401 13.52ZM1.55441 13.6935L1.68529 13.9637L1.69707 13.9574L1.55441 13.6935ZM1.03985 14.4263L0.741491 14.395L0.73817 14.4266L0.741566 14.4583L1.03985 14.4263ZM1.51153 15.2922L1.72609 15.0825L1.71384 15.07L1.7002 15.0589L1.51153 15.2922ZM3.01873 16.1933L2.93559 16.4816L2.93771 16.4822L3.01873 16.1933ZM13.6242 1.82098C14.2365 1.1036 15.1343 0.693316 16.0774 0.699982L16.0816 0.0999973C14.9615 0.0920792 13.895 0.579405 13.1678 1.43149L13.6242 1.82098ZM12.9028 4.41986C12.748 3.48955 13.012 2.53836 13.6242 1.82098L13.1678 1.43149C12.4407 2.28357 12.127 3.41337 12.3109 4.51836L12.9028 4.41986ZM0.928265 8.67629L12.7017 4.75373L12.5121 4.18449L0.738612 8.10705L0.928265 8.67629ZM0.698642 8.97652C0.707403 8.8388 0.798541 8.72004 0.929306 8.67594L0.737571 8.1074C0.376046 8.22932 0.124075 8.55767 0.0998524 8.93843L0.698642 8.97652ZM0.889357 9.30392C0.765234 9.2436 0.689881 9.11424 0.698642 8.97652L0.0998524 8.93843C0.0756295 9.31919 0.28396 9.67682 0.627121 9.84358L0.889357 9.30392ZM7.3892 12.4721L0.889682 9.30407L0.626795 9.84342L7.12631 13.0114L7.3892 12.4721ZM10.6954 19.1095L7.52743 12.6103L6.98809 12.8732L10.1561 19.3724L10.6954 19.1095ZM10.9999 19.3C10.8704 19.3001 10.7522 19.2262 10.6956 19.1097L10.156 19.3721C10.3131 19.6953 10.6411 19.9003 11.0004 19.9L10.9999 19.3ZM11.0408 19.3H11.0002V19.9H11.0408V19.3ZM11.3241 19.0693C11.28 19.2006 11.1607 19.2921 11.0225 19.3005L11.0591 19.8994C11.4413 19.876 11.7711 19.6232 11.8929 19.2602L11.3241 19.0693ZM15.2458 7.2978L11.3239 19.07L11.8931 19.2596L15.815 7.48745L15.2458 7.2978ZM18.6855 5.80963C17.974 6.78898 16.773 7.28615 15.5774 7.09634L15.4834 7.68892C16.9018 7.91412 18.3267 7.32425 19.1709 6.16231L18.6855 5.80963ZM18.9489 2.45607C19.4988 3.53448 19.3971 4.83029 18.6855 5.80963L19.1709 6.16231C20.0151 5.00037 20.1359 3.46296 19.4834 2.18349L18.9489 2.45607ZM16.0797 0.69999C17.2903 0.699121 18.3989 1.37767 18.9489 2.45607L19.4834 2.18349C18.8309 0.904018 17.5155 0.0989586 16.0793 0.0999899L16.0797 0.69999ZM7.5673 12.6022L10.7311 19.0915L11.2705 18.8285L8.10662 12.3392L7.5673 12.6022ZM7.41084 12.4382C7.47855 12.47 7.53259 12.5251 7.56317 12.5933L8.11075 12.3481C8.02147 12.1487 7.86364 11.988 7.66595 11.8952L7.41084 12.4382ZM0.908043 9.26772L7.40692 12.4364L7.66987 11.897L1.17099 8.72841L0.908043 9.26772ZM12.6695 4.80689L0.944688 8.71345L1.13435 9.28268L12.8591 5.37613L12.6695 4.80689ZM15.0088 6.95284C14.0931 6.62729 13.3725 5.90677 13.047 4.99102L12.4816 5.192C12.8677 6.27782 13.722 7.13217 14.8078 7.51818L15.0088 6.95284ZM11.2854 19.0548L15.1929 7.33036L14.6237 7.14065L10.7162 18.8651L11.2854 19.0548ZM12.8995 3.91999C12.8995 5.67625 14.3233 7.09999 16.0795 7.09999V6.49999C14.6546 6.49999 13.4995 5.34488 13.4995 3.91999H12.8995ZM16.0795 0.73999C14.3233 0.73999 12.8995 2.16372 12.8995 3.91999H13.4995C13.4995 2.49509 14.6546 1.33999 16.0795 1.33999V0.73999ZM19.2595 3.91999C19.2595 2.16372 17.8358 0.73999 16.0795 0.73999V1.33999C17.5044 1.33999 18.6595 2.49509 18.6595 3.91999H19.2595ZM16.0799 7.09999C17.8351 7.09804 19.2576 5.6756 19.2595 3.92032L18.6595 3.91966C18.6579 5.34408 17.5036 6.49841 16.0792 6.49999L16.0799 7.09999ZM12.4415 6.68164L11.2965 7.8266L11.7208 8.25086L12.8657 7.1059L12.4415 6.68164ZM13.3143 6.68554C13.0752 6.44638 12.6885 6.44302 12.4452 6.67798L12.862 7.10956C12.8699 7.10198 12.8823 7.10209 12.8901 7.1098L13.3143 6.68554ZM13.3219 7.55467C13.5568 7.31139 13.5535 6.92469 13.3143 6.68554L12.8901 7.1098C12.8978 7.11752 12.8979 7.12999 12.8903 7.13784L13.3219 7.55467ZM12.1733 8.70334L13.3182 7.55838L12.8939 7.13412L11.749 8.27908L12.1733 8.70334ZM11.5739 8.8687C11.7907 8.92544 12.0212 8.8608 12.1769 8.69963L11.7453 8.2828C11.7403 8.288 11.7329 8.29008 11.7259 8.28825L11.5739 8.8687ZM11.1312 8.4259C11.1879 8.64267 11.3572 8.81196 11.574 8.8687L11.7259 8.28825C11.7189 8.28642 11.7134 8.28096 11.7116 8.27397L11.1312 8.4259ZM11.3002 7.82295C11.139 7.97861 11.0744 8.20913 11.1312 8.4259L11.7116 8.27397C11.7098 8.26697 11.7119 8.25954 11.717 8.25452L11.3002 7.82295ZM10.3917 8.73187L8.35486 10.7684L8.77909 11.1927L10.8159 9.15617L10.3917 8.73187ZM10.9914 8.5597C10.7707 8.50382 10.5372 8.57337 10.383 8.74086L10.8245 9.14719C10.8295 9.14178 10.837 9.13954 10.8441 9.14134L10.9914 8.5597ZM11.4403 9.00855C11.3844 8.78788 11.2121 8.61557 10.9914 8.5597L10.8441 9.14134C10.8513 9.14314 10.8568 9.1487 10.8586 9.15582L11.4403 9.00855ZM11.2591 9.61692C11.4266 9.46276 11.4961 9.22922 11.4403 9.00855L10.8586 9.15582C10.8604 9.16294 10.8582 9.17048 10.8528 9.17545L11.2591 9.61692ZM9.23196 11.6454L11.2681 9.60827L10.8438 9.1841L8.8076 11.2212L9.23196 11.6454ZM8.63286 11.806C8.84689 11.8633 9.07524 11.8021 9.23191 11.6454L8.80765 11.2212C8.80255 11.2263 8.79512 11.2283 8.78816 11.2264L8.63286 11.806ZM8.19433 11.3674C8.25168 11.5814 8.41885 11.7486 8.63286 11.806L8.78816 11.2264C8.78119 11.2245 8.77575 11.2191 8.77389 11.2121L8.19433 11.3674ZM8.35485 10.7684C8.19817 10.925 8.13699 11.1534 8.19433 11.3674L8.77389 11.2121C8.77202 11.2052 8.77401 11.1977 8.77911 11.1926L8.35485 10.7684ZM4.13329 13.5725C3.81015 13.0958 3.31687 12.7609 2.75464 12.6364L2.62491 13.2222C3.03751 13.3136 3.39952 13.5594 3.63666 13.9092L4.13329 13.5725ZM4.46497 15.3263C4.5775 14.725 4.46169 14.1035 4.14019 13.5831L3.62976 13.8985C3.87273 14.2918 3.96026 14.7615 3.87521 15.2159L4.46497 15.3263ZM4.13155 16.4163C4.2912 16.0673 4.4037 15.6985 4.4661 15.3198L3.87408 15.2223C3.82034 15.5485 3.72343 15.8661 3.58592 16.1668L4.13155 16.4163ZM4.14373 15.9575C4.04569 15.9763 3.94639 15.9878 3.84666 15.9918L3.87081 16.5913C4.00034 16.5861 4.1293 16.5712 4.25662 16.5468L4.14373 15.9575ZM5.85493 13.607C5.91237 14.5853 5.25009 15.7475 4.14421 15.9574L4.25614 16.5469C5.72882 16.2673 6.52445 14.7735 6.4539 13.5719L5.85493 13.607ZM6.13328 13.0524C5.94809 13.1742 5.84198 13.3857 5.85492 13.607L6.4539 13.5719C6.45347 13.5646 6.45699 13.5576 6.46312 13.5536L6.13328 13.0524ZM6.75277 13.0161C6.55463 12.9167 6.31848 12.9305 6.13328 13.0524L6.46312 13.5536C6.46925 13.5495 6.47707 13.5491 6.48363 13.5524L6.75277 13.0161ZM7.0939 13.5345C7.08095 13.3132 6.95091 13.1156 6.75277 13.0161L6.48363 13.5524C6.49019 13.5557 6.4945 13.5622 6.49493 13.5695L7.0939 13.5345ZM4.37676 17.1748C6.1894 16.8307 7.18067 15.0081 7.09389 13.5344L6.49493 13.5697C6.56816 14.8134 5.71623 16.3098 4.26487 16.5853L4.37676 17.1748ZM3.49948 17.2247C3.79254 17.2456 4.08708 17.2289 4.3759 17.1749L4.26573 16.5851C4.02728 16.6297 3.78411 16.6435 3.54215 16.6262L3.49948 17.2247ZM2.45889 18.7028C2.95685 18.2158 3.39787 17.6738 3.77346 17.0872L3.26817 16.7637C2.91708 17.312 2.50484 17.8186 2.03937 18.2739L2.45889 18.7028ZM1.06171 19.8095C1.57181 19.4974 2.04219 19.1246 2.46252 18.6992L2.03574 18.2775C1.6495 18.6683 1.21729 19.0109 0.748559 19.2977L1.06171 19.8095ZM0.439785 19.8266C0.635857 19.9332 0.87413 19.9263 1.06364 19.8083L0.746626 19.2989C0.740515 19.3027 0.73283 19.3029 0.726504 19.2995L0.439785 19.8266ZM0.116158 19.2929C0.120108 19.5161 0.243714 19.7199 0.439785 19.8266L0.726504 19.2995C0.720178 19.2961 0.716192 19.2895 0.716064 19.2823L0.116158 19.2929ZM0.4207 18.7481C0.228523 18.8617 0.112208 19.0697 0.116158 19.2929L0.716064 19.2823C0.715937 19.2751 0.719689 19.2684 0.725887 19.2647L0.4207 18.7481ZM1.58131 17.827C1.23182 18.1807 0.840745 18.4909 0.416633 18.7506L0.729954 19.2623C1.19541 18.9773 1.62461 18.6369 2.00816 18.2486L1.58131 17.827ZM2.58848 16.6356C2.29085 17.0616 1.9547 17.4594 1.5843 17.824L2.00517 18.2516C2.40176 17.8613 2.76166 17.4353 3.08034 16.9792L2.58848 16.6356ZM0.844005 15.9558C1.37129 16.4929 2.02789 16.8854 2.75069 17.0955L2.91814 16.5193C2.29418 16.338 1.72736 15.9992 1.27218 15.5355L0.844005 15.9558ZM0.100305 14.4325C0.133081 15.029 0.408865 15.5861 0.863387 15.9739L1.2528 15.5174C0.923174 15.2362 0.723171 14.8322 0.699402 14.3996L0.100305 14.4325ZM1.10982 12.8656C0.525118 13.1607 0.140871 13.7438 0.100426 14.3975L0.699281 14.4345C0.726562 13.9936 0.985739 13.6003 1.38013 13.4013L1.10982 12.8656ZM2.75479 12.6364C2.19353 12.5118 1.60612 12.5948 1.10135 12.8701L1.3886 13.3968C1.76597 13.1911 2.20514 13.129 2.62475 13.2222L2.75479 12.6364ZM3.24395 15.119C3.18605 15.4591 3.07449 15.7878 2.91343 16.0929L3.44404 16.373C3.63476 16.0117 3.76687 15.6224 3.83544 15.2196L3.24395 15.119ZM3.09351 14.2462C3.24968 14.5058 3.30379 14.8142 3.24533 15.1114L3.83406 15.2272C3.92123 14.7839 3.84053 14.324 3.60764 13.9369L3.09351 14.2462ZM2.48342 13.8448C2.7354 13.901 2.95697 14.05 3.10392 14.2623L3.59723 13.9208C3.36435 13.5844 3.01323 13.3482 2.61389 13.2592L2.48342 13.8448ZM2.24593 13.82C2.32612 13.8195 2.40611 13.8279 2.48444 13.8451L2.61286 13.259C2.4911 13.2323 2.36675 13.2192 2.2421 13.22L2.24593 13.82ZM1.69707 13.9574C1.86479 13.8667 2.05254 13.8195 2.24319 13.82L2.24484 13.22C1.95401 13.2192 1.66761 13.2913 1.41176 13.4295L1.69707 13.9574ZM1.33822 14.4576C1.36063 14.2439 1.49184 14.0571 1.68516 13.9635L1.42367 13.4234C1.04356 13.6075 0.785558 13.9749 0.741491 14.395L1.33822 14.4576ZM1.7002 15.0589C1.49632 14.894 1.36612 14.655 1.33814 14.3943L0.741566 14.4583C0.786485 14.8769 0.99552 15.2606 1.32286 15.5254L1.7002 15.0589ZM3.10187 15.9051C2.57985 15.7545 2.10582 15.4711 1.72609 15.0825L1.29698 15.5019C1.74925 15.9647 2.31384 16.3022 2.93559 16.4815L3.10187 15.9051ZM3.24289 15.9399C3.19367 15.9291 3.14591 15.9174 3.09975 15.9044L2.93771 16.4822C2.99651 16.4986 3.05564 16.5131 3.11457 16.526L3.24289 15.9399ZM16.0599 2.06668C16.0599 2.07302 16.0584 2.07893 16.0563 2.08319C16.0545 2.08709 16.053 2.08815 16.0538 2.08743C16.0557 2.08572 16.0641 2.08002 16.0799 2.08002V1.48002C15.7694 1.48002 15.4599 1.7125 15.4599 2.06668H16.0599ZM16.0599 4.07335V2.06668H15.4599V4.07335H16.0599ZM16.0799 4.06002C16.0641 4.06002 16.0557 4.05432 16.0538 4.0526C16.053 4.05189 16.0545 4.05295 16.0563 4.05685C16.0584 4.0611 16.0599 4.06701 16.0599 4.07335H15.4599C15.4599 4.42754 15.7694 4.66002 16.0799 4.66002V4.06002ZM16.0999 4.07335C16.0999 4.06701 16.1015 4.0611 16.1035 4.05685C16.1053 4.05295 16.1068 4.05189 16.106 4.0526C16.1041 4.05432 16.0957 4.06002 16.0799 4.06002V4.66002C16.3904 4.66002 16.6999 4.42754 16.6999 4.07335H16.0999ZM16.0999 2.06668V4.07335H16.6999V2.06668H16.0999ZM16.0799 2.08002C16.0957 2.08002 16.1041 2.08572 16.106 2.08743C16.1068 2.08815 16.1053 2.08709 16.1035 2.08319C16.1015 2.07893 16.0999 2.07302 16.0999 2.06668H16.6999C16.6999 1.7125 16.3904 1.48002 16.0799 1.48002V2.08002ZM16.0799 4.78002C15.7375 4.78002 15.4599 5.0576 15.4599 5.40002H16.0599C16.0599 5.38897 16.0689 5.38002 16.0799 5.38002V4.78002ZM16.6999 5.40002C16.6999 5.0576 16.4223 4.78002 16.0799 4.78002V5.38002C16.091 5.38002 16.0999 5.38897 16.0999 5.40002H16.6999ZM16.6999 5.72002V5.40002H16.0999V5.72002H16.6999ZM16.0799 6.34002C16.4223 6.34002 16.6999 6.06243 16.6999 5.72002H16.0999C16.0999 5.73106 16.091 5.74002 16.0799 5.74002V6.34002ZM15.4599 5.72002C15.4599 6.06243 15.7375 6.34002 16.0799 6.34002V5.74002C16.0689 5.74002 16.0599 5.73106 16.0599 5.72002H15.4599ZM15.4599 5.40002V5.72002H16.0599V5.40002H15.4599Z" fill="white" mask="url(#path-1-outside-1)"/>
</svg>
