<svg width="171" height="42" viewBox="0 0 171 42" fill="black" xmlns="http://www.w3.org/2000/svg">
<path d="M8.82633 10C5.15406 10 2.70588 10.1945 0 10.389V36H8.43978C17.5238 36 23 31.2668 23 22.9027C23 14.5387 17.9748 10 8.82633 10ZM8.95518 32.1097L4.44538 31.9801V14.3441C5.47619 14.2793 6.63585 14.1496 8.69748 14.1496C14.7535 14.1496 18.2969 17.3267 18.2969 23.0324C18.2969 28.7382 15.1401 32.0449 8.95518 32.1097Z" fill="white"/>
<path d="M126.455 24.8938C126.455 29.6444 124.216 32.1481 120.066 32.1481C115.916 32.1481 113.611 29.7086 113.611 24.8938V10H109V25.4716C109 32.2123 112.952 36 120 36C127.048 36 131 32.1481 131 25.4716V10H126.455V24.8938Z" fill="white"/>
<path d="M155.732 11.5758V10H135L135.067 13.8081H149.291L135 34.4242V36H156V32.1919H141.24L155.732 11.5758Z" fill="white"/>
<path d="M41.5 13.784C46.284 13.784 50.216 17.716 50.216 22.5C50.216 27.284 46.3495 31.216 41.5 31.216C36.716 31.216 32.784 27.284 32.784 22.5C32.8495 17.716 36.716 13.8495 41.5 13.784ZM41.5 9C34.0291 9 28 15.0291 28 22.5C28 29.9709 34.0291 36 41.5 36C48.9709 36 55 29.9709 55 22.5C55 15.0947 48.9709 9 41.5 9Z" fill="white"/>
<path d="M162 0.845071H163.586V5H164.414V0.845071H166V0H162V0.845071Z" fill="white"/>
<path d="M170.74 0H170.091L168.597 3.09859L167.039 0H166.325L166 5H166.779L166.974 1.5493L168.338 4.29577H168.727L170.091 1.5493L170.286 5H171L170.74 0Z" fill="white"/>
<path d="M104 22.5689C104 22.4371 104 22.2395 104 22.1078C104 21.7784 104 21.4491 103.935 21.1856C103.935 21.0539 103.869 20.9222 103.869 20.7904C103.804 20.4611 103.804 20.1317 103.739 19.8683C103.739 19.7365 103.673 19.6048 103.673 19.4731C103.608 19.1437 103.542 18.8802 103.412 18.5509C103.346 18.4192 103.346 18.3533 103.281 18.2216C103.15 17.8922 103.085 17.6287 102.954 17.2994C102.889 17.1677 102.823 17.1018 102.823 16.9701C102.692 16.7066 102.562 16.3772 102.431 16.1138C102.366 15.982 102.3 15.9162 102.235 15.7844C102.104 15.521 101.908 15.2575 101.712 14.994C101.646 14.9281 101.581 14.7964 101.516 14.7305C101.32 14.4671 101.123 14.2036 100.927 13.9401C100.862 13.8743 100.797 13.8084 100.731 13.6766C100.535 13.4132 100.339 13.2156 100.077 12.9521C100.012 12.8862 99.9467 12.8204 99.816 12.7545C99.5545 12.5569 99.3584 12.2934 99.0969 12.0958C99.0315 12.0299 98.9007 11.9641 98.8354 11.8982C98.5739 11.7006 98.3123 11.503 98.0508 11.3054C97.9855 11.2395 97.8547 11.1737 97.7893 11.1737C97.5278 10.976 97.2663 10.8443 96.9395 10.6467C96.8741 10.5808 96.7433 10.5808 96.678 10.515C96.4165 10.3832 96.0896 10.1856 95.7627 10.0539C95.632 9.98803 95.5666 9.98802 95.4358 9.92216C95.109 9.79042 94.8475 9.65868 94.5206 9.59282C94.3898 9.52695 94.2591 9.52695 94.1283 9.52695C93.8014 9.46108 93.54 9.32934 93.2131 9.26347C93.017 9.19761 92.8862 9.19761 92.6901 9.19761C92.4286 9.13174 92.1671 9.13174 91.8402 9.06587C91.5133 9 91.1864 9 90.8596 9C90.7288 9 90.5981 9 90.4673 9C90.0751 9 89.6828 9 89.2906 9.06587C89.1598 9.06587 89.0291 9.06587 88.8983 9.13174C88.5714 9.19761 88.3099 9.19761 88.0484 9.26347C87.7869 9.32934 87.5254 9.39521 87.2639 9.46108C87.1332 9.52695 87.0024 9.52695 86.8717 9.59282C81.8378 10.976 77.9806 15.2575 77.1961 20.5269C77.1961 20.6587 77.1307 20.7246 77.1307 20.8563C77.1307 21.0539 77.0654 21.2515 77.0654 21.4491C77.0654 21.8443 77 22.1737 77 22.5689C77 22.9641 77 23.3593 77.0654 23.7545C77.0654 23.8862 77.0654 24.018 77.1307 24.1497C77.1307 24.4132 77.1961 24.6766 77.2615 24.9401C77.5884 26.9162 78.3729 28.6946 79.4189 30.2755C79.615 30.5389 79.8111 30.8024 80.0073 31.0659C80.0726 31.1976 80.2034 31.3293 80.3341 31.3952C80.5303 31.5928 80.7264 31.8563 80.9225 32.0539C80.9879 32.1198 81.0533 32.1856 81.1186 32.2515C81.3801 32.515 81.6417 32.7784 81.9685 33.0419C82.0339 33.1078 82.0339 33.1078 82.0993 33.1737C82.2954 33.3054 82.4915 33.503 82.6876 33.6347C82.8838 33.7665 83.0145 33.8982 83.2107 33.9641C83.799 34.3593 84.4528 34.6886 85.1065 35.018C86.414 35.6108 87.8523 36.006 89.4213 36.1377L85.4334 40.1557L83.5375 42H90.2712L91.3826 40.8802L99.1622 33.0419C100.797 31.6587 102.104 29.9461 102.889 27.9701C102.954 27.9042 102.954 27.7725 103.019 27.7066C103.085 27.6407 103.085 27.509 103.085 27.4431C103.15 27.1796 103.281 26.982 103.346 26.7186C103.346 26.6527 103.412 26.5868 103.412 26.521C103.477 26.1916 103.608 25.8623 103.673 25.5988C103.673 25.4671 103.739 25.3353 103.739 25.2036C103.804 24.8084 103.869 24.3473 103.935 23.9521C104 23.5569 104 23.0958 104 22.7006C104 22.6347 104 22.6347 104 22.5689ZM99.2276 22.7006C99.1622 27.509 95.3051 31.3293 90.5327 31.3293C89.8789 31.3293 89.2252 31.2635 88.6368 31.1317C88.5714 31.1317 88.5061 31.1317 88.4407 31.0659C88.1138 31 87.7869 30.8683 87.5254 30.8024C85.6949 30.1437 84.1259 28.8263 83.1453 27.1796C83.0799 27.1138 83.0799 27.0479 83.0145 26.982C82.8838 26.7186 82.753 26.4551 82.6223 26.2575C82.6223 26.2575 82.6223 26.2575 82.6223 26.1916C82.5569 26.0599 82.5569 25.994 82.4915 25.8623C82.4915 25.7964 82.4915 25.7964 82.4262 25.7305C82.0339 24.7425 81.8378 23.7545 81.8378 22.6347V22.5689C81.8378 22.4371 81.8378 22.3713 81.8378 22.3054C82.0339 17.6287 85.8257 13.8743 90.5327 13.8084C95.3051 13.8084 99.2276 17.7605 99.2276 22.5689C99.2276 22.6347 99.2276 22.7006 99.2276 22.7006Z" fill="white"/>
<path d="M78.1115 36.1142C77.2914 35.3868 76.5396 34.5932 75.8561 33.7335C75.241 33.006 74.7626 32.2124 74.2842 31.3527C74.2158 31.2204 74.1475 31.022 74.0108 30.8898C72.6439 28.3106 71.9604 25.4669 71.9604 22.5571C71.9604 19.7134 72.6439 16.8697 74.0108 14.2906C74.0791 14.1583 74.1475 13.9599 74.2842 13.8277C74.2842 13.8277 74.2842 13.8277 74.2842 13.7615C74.7626 12.9679 75.241 12.1743 75.8561 11.4469L77.7014 9.46293L78.1115 9H75.3093H73.1223C72.4388 9 71.7554 9.13226 71.0719 9.26453C70.9352 9.26453 70.7986 9.33066 70.6619 9.33066C70.5252 9.39679 70.3885 9.39679 70.2518 9.46293C69.295 9.72746 68.4065 10.0581 67.5863 10.4549C67.3813 10.5872 67.1763 10.6533 66.9712 10.7856C66.1511 11.2485 65.3993 11.7776 64.7158 12.3727C64.0324 12.9679 63.4173 13.5631 62.8705 14.2906C62.3921 14.8858 61.982 15.481 61.6403 16.0762C61.5719 16.1423 61.5719 16.2745 61.5036 16.3407C61.4352 16.5391 61.2986 16.6713 61.2302 16.8697C61.1619 17.0681 61.0252 17.2665 60.9568 17.5311C60.9568 17.5972 60.8885 17.6633 60.8885 17.6633C60.5468 18.523 60.2734 19.4489 60.1367 20.4409C60.1367 20.5731 60.0683 20.6393 60.0683 20.7715C60.0683 20.9699 60 21.1683 60 21.3667C60 21.499 60 21.6313 60 21.7635C60 22.0281 60 22.2265 60 22.491C60 22.7555 60 23.02 60 23.2846C60 23.4168 60 23.5491 60 23.7475C60 23.8798 60 24.012 60.0683 24.1443C60.0683 24.4088 60.1367 24.6733 60.205 24.9379C60.5468 26.9218 61.3669 28.7074 62.4604 30.2946C62.6655 30.5591 62.8705 30.8236 63.0755 31.0882C63.2122 31.2204 63.2806 31.3527 63.4173 31.485C63.6223 31.6834 63.759 31.8818 63.964 32.0802C64.0324 32.1463 64.1007 32.2124 64.1691 32.2786C64.4424 32.5431 64.7158 32.8076 65.0576 33.006C65.1259 33.0721 65.1259 33.0721 65.1942 33.1383C65.3993 33.2705 65.6043 33.4689 65.8094 33.6012C66.0144 33.7335 66.1511 33.8657 66.3561 33.9319C66.9712 34.3287 67.6547 34.6593 68.3381 34.99C69.705 35.5852 71.2086 35.982 72.8489 36.1142L72.7806 36.1804C72.8489 36.1804 72.8489 36.1804 72.9173 36.1804L66.8345 42H73.6691L74.8309 40.8758L79 36.8417L78.1115 36.1142Z" fill="white"/>
</svg>
