<svg width="658" height="372" viewBox="0 0 658 372" fill="none" xmlns="http://www.w3.org/2000/svg">
<path d="M92.3335 121.238H105.667" stroke="#E3E3E3" stroke-width="2.2354" stroke-miterlimit="10"/>
<path d="M99 94.3811L110.619 106" stroke="#E3E3E3" stroke-width="2.2354" stroke-miterlimit="10"/>
<path d="M124.905 86.3811V97.6192" stroke="#E3E3E3" stroke-width="2.2354" stroke-miterlimit="10"/>
<path d="M202.987 12.3973L173.154 42.2302L202.987 72.0631L232.82 42.2302L202.987 12.3973Z" fill="#E43122"/>
<path d="M201.477 48.0954L200.905 27.3335H205.096L204.524 48.0954H201.477ZM200.429 54.2859C200.429 53.6192 200.62 52.9526 201.096 52.3811C201.572 51.8097 202.239 51.6192 202.905 51.6192C203.572 51.6192 204.334 51.9049 204.81 52.3811C205.286 52.8573 205.572 53.6192 205.477 54.2859C205.572 55.2383 205.096 56.1907 204.239 56.6668C203.381 57.143 202.334 57.143 201.572 56.6668C200.81 56.1907 200.334 55.2383 200.429 54.2859Z" fill="white"/>
<path d="M255.667 40.4763H243.381V43.9049H255.667V40.4763Z" fill="#E43122"/>
<path d="M204.715 82.6667H201.286V94.9524H204.715V82.6667Z" fill="#E43122"/>
<path d="M204.715 105.524H201.286V117.81H204.715V105.524Z" fill="#E43122"/>
<path d="M278.619 40.4763H266.333V43.9049H278.619V40.4763Z" fill="#E43122"/>
<path d="M301.477 40.4763H289.191V43.9049H301.477V40.4763Z" fill="#E43122"/>
<path d="M324.334 40.4763H312.048V43.9049H324.334V40.4763Z" fill="#E43122"/>
<path d="M347.286 40.4763H335V43.9049H347.286V40.4763Z" fill="#E43122"/>
<path d="M370.143 40.4763H357.857V43.9049H370.143V40.4763Z" fill="#E43122"/>
<path d="M393 40.4763H380.714V43.9049H393V40.4763Z" fill="#E43122"/>
<path d="M611.762 105.429C611.762 128.762 586.429 131.524 586.238 131.524V133.619C590.524 133.619 613.953 128.381 613.953 105.429C613.953 96.1906 609.476 87.6192 602.048 82.1906C608.619 76.5715 613.953 68.5715 613.953 59.143C613.953 46.0001 601.476 37.8096 594.905 34.381C594.905 34.0001 594.905 33.7144 594.905 33.3334C594.905 28.4763 591 24.5715 586.143 24.5715V42.0001C589.762 42.0001 592.905 39.8096 594.238 36.4763C600.619 39.9049 611.667 47.5239 611.667 59.143C611.667 67.9049 606.429 75.6192 600.143 80.8573C595.953 77.9049 591.286 75.6192 586.429 74.0954L585.857 76.1906C590.333 77.6192 594.524 79.6192 598.429 82.2858C593.476 86.0001 587.953 88.1906 584.048 88.1906V90.2858C588.524 90.2858 594.714 87.8096 600.334 83.5239C607.476 88.5715 611.762 96.762 611.762 105.429Z" fill="#2A41E8"/>
<path d="M614.333 170.857C614.333 152.191 587.667 143.143 586.619 142.857L585.953 144.857C586.238 144.857 612.238 153.714 612.238 170.857C612.238 184.857 601.572 193.333 595.476 196.286C594.048 193.143 591 191.143 587.572 191.143V208.571C589.857 208.571 592.143 207.619 593.762 206C595.381 204.381 596.333 202.095 596.333 199.81C596.333 199.333 596.238 198.857 596.143 198.381C603.191 195.238 614.333 185.524 614.333 170.857Z" fill="#2A41E8"/>
<path d="M585.381 257.81L585.095 259.905C589.857 260.762 594.429 262.381 598.619 264.762C607.381 269.81 611.857 277.048 611.857 286.476C611.857 308.571 587.857 313.619 584.143 313.619V315.714C588.048 315.714 613.952 310.286 613.952 286.381C613.857 262.095 585.667 257.81 585.381 257.81Z" fill="#2A41E8"/>
<path d="M586.238 59.1428H389.667V116.667H586.238V59.1428Z" fill="white"/>
<path d="M586.238 59.1428H389.667V116.667H586.238V59.1428Z" stroke="#E3E3E3" stroke-width="2.2354" stroke-miterlimit="10"/>
<path d="M586.238 116.667H389.667V174.191H586.238V116.667Z" fill="white"/>
<path d="M586.238 116.667H389.667V174.191H586.238V116.667Z" stroke="#E3E3E3" stroke-width="2.2354" stroke-miterlimit="10"/>
<path d="M586.238 174.095H389.667V231.619H586.238V174.095Z" fill="white"/>
<path d="M586.238 174.095H389.667V231.619H586.238V174.095Z" stroke="#E3E3E3" stroke-width="2.2354" stroke-miterlimit="10"/>
<path d="M586.238 231.619H389.667V289.143H586.238V231.619Z" fill="white"/>
<path d="M586.238 231.619H389.667V289.143H586.238V231.619Z" stroke="#E3E3E3" stroke-width="2.2354" stroke-miterlimit="10"/>
<path d="M408.334 1.71436H567.762C578.048 1.71436 586.334 10.0001 586.334 20.2858V59.1429H389.667V20.2858C389.667 15.3334 391.667 10.5715 395.096 7.14292C398.524 3.71435 403.381 1.71436 408.334 1.71436Z" fill="white"/>
<path d="M408.334 1.71436H567.762C578.048 1.71436 586.334 10.0001 586.334 20.2858V59.1429H389.667V20.2858C389.667 15.3334 391.667 10.5715 395.096 7.14292C398.619 3.61911 403.381 1.71436 408.334 1.71436Z" stroke="#E3E3E3" stroke-width="2.2354" stroke-miterlimit="10"/>
<path d="M523.422 41.6139C528.256 41.3946 531.998 37.2979 531.778 32.4637C531.559 27.6295 527.462 23.8883 522.628 24.1076C517.794 24.3269 514.053 28.4236 514.272 33.2578C514.491 38.092 518.588 41.8332 523.422 41.6139Z" fill="#E43122"/>
<path d="M565.191 32.8571C565.191 37.7143 561.286 41.619 556.429 41.619C551.572 41.619 547.667 37.7143 547.667 32.8571C547.667 28 551.572 24.0952 556.429 24.0952C561.286 24.1905 565.191 28.0952 565.191 32.8571Z" fill="#2A41E8"/>
<path d="M466.619 20.5715H463.572L438.048 46.0954H441L466.619 20.5715Z" fill="#E3E3E3"/>
<path d="M423.096 46.0954H426.143L451.667 20.5715H448.619L423.096 46.0954Z" fill="#E3E3E3"/>
<path d="M410.238 29.7144C409.857 30.8573 409.667 32.0954 409.667 33.2382L422.429 20.4763C421.191 20.4763 420.048 20.6668 418.905 20.9525L410.238 29.7144Z" fill="#E3E3E3"/>
<path d="M433.667 20.5715L412.714 41.5239C413.191 42.0953 413.667 42.5715 414.238 43.0477L436.714 20.5715H433.667Z" fill="#E3E3E3"/>
<path d="M481.476 20.5715H478.524L453 46.0954H455.952L481.476 20.5715Z" fill="#E3E3E3"/>
<path d="M495 37.0478C495.381 35.9049 495.572 34.6668 495.667 33.4287L482.905 46.0954C484.143 46.0954 485.286 45.9049 486.429 45.524L495 37.0478Z" fill="#E3E3E3"/>
<path d="M470.905 46.0954L492.238 24.7621C491.762 24.1906 491.286 23.7144 490.714 23.3335L467.953 46.0954H470.905Z" fill="#E3E3E3"/>
<path d="M531.721 88.3903C532.021 83.5604 528.35 79.4012 523.52 79.1005C518.69 78.7998 514.531 82.4715 514.23 87.3014C513.929 92.1313 517.601 96.2904 522.431 96.5911C527.261 96.8917 531.42 93.2202 531.721 88.3903Z" fill="#E3E3E3"/>
<path d="M565.191 87.9047C565.191 92.7619 561.286 96.6666 556.429 96.6666C551.572 96.6666 547.667 92.7619 547.667 87.9047C547.667 83.0476 551.572 79.1428 556.429 79.1428C561.286 79.1428 565.191 83.0476 565.191 87.9047Z" fill="#E3E3E3"/>
<path d="M466.619 75.1428H463.572L438.048 100.667H441L466.619 75.1428Z" fill="#E3E3E3"/>
<path d="M423.096 100.667H426.143L451.667 75.1428H448.619L423.096 100.667Z" fill="#E3E3E3"/>
<path d="M410.238 84.2857C409.857 85.4285 409.667 86.6666 409.667 87.8095L422.429 75.1428C421.191 75.1428 420.048 75.3333 418.905 75.7143L410.238 84.2857Z" fill="#E3E3E3"/>
<path d="M433.667 75.1428L412.714 96.0952C413.191 96.6666 413.667 97.1428 414.238 97.619L436.714 75.1428H433.667Z" fill="#E3E3E3"/>
<path d="M481.476 75.1428H478.524L453 100.667H455.952L481.476 75.1428Z" fill="#E3E3E3"/>
<path d="M495 91.5238C495.286 90.381 495.477 89.1429 495.572 88L482.905 100.762C484.143 100.762 485.286 100.571 486.429 100.19L495 91.5238Z" fill="#E3E3E3"/>
<path d="M470.905 100.667L492.238 79.3334C491.762 78.7619 491.286 78.2857 490.714 77.9048L467.953 100.667H470.905Z" fill="#E3E3E3"/>
<path d="M523.733 154.16C528.556 153.761 532.142 149.528 531.743 144.705C531.344 139.883 527.11 136.297 522.288 136.696C517.465 137.095 513.879 141.328 514.278 146.151C514.677 150.973 518.91 154.559 523.733 154.16Z" fill="#E3E3E3"/>
<path d="M565.191 145.429C565.191 150.286 561.286 154.191 556.429 154.191C551.572 154.191 547.667 150.286 547.667 145.429C547.667 140.572 551.572 136.667 556.429 136.667C561.286 136.667 565.191 140.572 565.191 145.429Z" fill="#E3E3E3"/>
<path d="M466.619 132.572H463.572L438.048 158.191H441L466.619 132.572Z" fill="#E3E3E3"/>
<path d="M423.096 158.191H426.143L451.667 132.572H448.619L423.096 158.191Z" fill="#E3E3E3"/>
<path d="M410.238 141.714C409.857 142.857 409.667 144.095 409.667 145.238L422.429 132.572C421.191 132.572 420.048 132.762 418.905 133.143L410.238 141.714Z" fill="#E3E3E3"/>
<path d="M433.667 132.572L412.714 153.524C413.191 154.095 413.667 154.572 414.238 155.048L436.714 132.572H433.667Z" fill="#E3E3E3"/>
<path d="M481.476 132.572H478.524L453 158.191H455.952L481.476 132.572Z" fill="#E3E3E3"/>
<path d="M495 149.048C495.286 147.905 495.477 146.667 495.572 145.524L482.905 158.286C484.143 158.286 485.286 158.095 486.429 157.714L495 149.048Z" fill="#E3E3E3"/>
<path d="M470.905 158.191L492.238 136.857C491.762 136.286 491.286 135.81 490.714 135.429L467.953 158.191H470.905Z" fill="#E3E3E3"/>
<path d="M531.724 203.141C531.91 198.306 528.14 194.235 523.305 194.049C518.469 193.864 514.398 197.633 514.213 202.469C514.027 207.305 517.797 211.375 522.632 211.561C527.468 211.747 531.539 207.977 531.724 203.141Z" fill="#E3E3E3"/>
<path d="M565.191 202.857C565.191 207.714 561.286 211.619 556.429 211.619C551.572 211.619 547.667 207.714 547.667 202.857C547.667 198 551.572 194.095 556.429 194.095C561.286 194.19 565.191 198.095 565.191 202.857Z" fill="#E3E3E3"/>
<path d="M466.619 190.095H463.572L438.048 215.619H441L466.619 190.095Z" fill="#E3E3E3"/>
<path d="M423.096 215.619H426.143L451.667 190.095H448.619L423.096 215.619Z" fill="#E3E3E3"/>
<path d="M410.238 199.238C409.857 200.381 409.667 201.619 409.667 202.762L422.429 190.095C421.191 190.095 420.048 190.286 418.905 190.667L410.238 199.238Z" fill="#E3E3E3"/>
<path d="M433.667 190.095L412.714 211.048C413.191 211.619 413.667 212.095 414.238 212.571L436.714 190.095H433.667Z" fill="#E3E3E3"/>
<path d="M481.476 190.095H478.524L453 215.619H455.952L481.476 190.095Z" fill="#E3E3E3"/>
<path d="M495 206.476C495.286 205.333 495.477 204.095 495.572 202.952L482.905 215.714C484.143 215.714 485.286 215.524 486.429 215.143L495 206.476Z" fill="#E3E3E3"/>
<path d="M470.905 215.619L492.238 194.286C491.762 193.714 491.286 193.238 490.714 192.857L467.953 215.619H470.905Z" fill="#E3E3E3"/>
<path d="M523.176 269.141C528.014 269.044 531.858 265.043 531.761 260.205C531.664 255.367 527.664 251.524 522.826 251.62C517.987 251.717 514.144 255.717 514.241 260.556C514.337 265.394 518.338 269.237 523.176 269.141Z" fill="#E3E3E3"/>
<path d="M565.191 260.381C565.191 265.238 561.286 269.143 556.429 269.143C551.572 269.143 547.667 265.238 547.667 260.381C547.667 255.524 551.572 251.619 556.429 251.619C561.286 251.619 565.191 255.524 565.191 260.381Z" fill="#E3E3E3"/>
<path d="M466.619 247.619H463.572L438.048 273.143H441L466.619 247.619Z" fill="#E3E3E3"/>
<path d="M423.096 273.143H426.143L451.667 247.619H448.619L423.096 273.143Z" fill="#E3E3E3"/>
<path d="M410.238 256.667C409.857 257.81 409.667 259.048 409.667 260.191L422.429 247.524C421.191 247.524 420.048 247.714 418.905 248.095L410.238 256.667Z" fill="#E3E3E3"/>
<path d="M433.667 247.619L412.714 268.572C413.191 269.143 413.667 269.619 414.238 270.095L436.714 247.619H433.667Z" fill="#E3E3E3"/>
<path d="M481.476 247.619H478.524L453 273.143H455.952L481.476 247.619Z" fill="#E3E3E3"/>
<path d="M495 264C495.286 262.857 495.477 261.619 495.572 260.476L482.905 273.238C484.143 273.238 485.286 273.048 486.429 272.667L495 264Z" fill="#E3E3E3"/>
<path d="M470.905 273.143L492.238 251.81C491.762 251.238 491.286 250.762 490.714 250.381L467.953 273.143H470.905Z" fill="#E3E3E3"/>
<path d="M0.0478516 347.762H657.953" stroke="#E3E3E3" stroke-width="4.4708" stroke-miterlimit="10"/>
<path d="M586.238 289.048H389.667V346.571H586.238V289.048Z" fill="white"/>
<path d="M586.238 289.048H389.667V346.571H586.238V289.048Z" stroke="#E3E3E3" stroke-width="2.2354" stroke-miterlimit="10"/>
<path d="M531.774 317.784C532.024 312.952 528.308 308.832 523.475 308.582C518.642 308.333 514.522 312.049 514.273 316.882C514.024 321.714 517.74 325.834 522.572 326.083C527.405 326.333 531.525 322.617 531.774 317.784Z" fill="#E3E3E3"/>
<path d="M565.191 317.429C565.191 322.286 561.286 326.191 556.429 326.191C551.572 326.191 547.667 322.286 547.667 317.429C547.667 312.572 551.572 308.667 556.429 308.667C561.286 308.667 565.191 312.572 565.191 317.429Z" fill="#E3E3E3"/>
<path d="M466.619 305.048H463.572L438.048 330.571H441L466.619 305.048Z" fill="#E3E3E3"/>
<path d="M423.096 330.571H426.143L451.667 305.048H448.619L423.096 330.571Z" fill="#E3E3E3"/>
<path d="M410.238 314.19C409.857 315.333 409.667 316.571 409.667 317.714L422.429 305.048C421.191 305.048 420.048 305.238 418.905 305.619L410.238 314.19Z" fill="#E3E3E3"/>
<path d="M433.667 305.048L412.714 326C413.191 326.571 413.667 327.048 414.238 327.524L436.714 305.048H433.667Z" fill="#E3E3E3"/>
<path d="M481.476 305.048H478.524L453 330.571H455.952L481.476 305.048Z" fill="#E3E3E3"/>
<path d="M495 321.524C495.286 320.381 495.477 319.143 495.572 318L482.905 330.762C484.143 330.762 485.286 330.571 486.429 330.19L495 321.524Z" fill="#E3E3E3"/>
<path d="M470.905 330.571L492.238 309.238C491.762 308.667 491.286 308.191 490.714 307.81L467.953 330.571H470.905Z" fill="#E3E3E3"/>
<path d="M165.19 109.905H380.429C410.333 109.905 434.524 134.095 434.524 164V309.905C434.524 315.143 430.333 319.333 425.095 319.333H120.619C115.381 319.333 111.19 315.143 111.19 309.905V163.905C111.19 134.095 135.381 109.905 165.19 109.905Z" fill="white"/>
<path d="M165.19 109.905H380.429C410.333 109.905 434.524 134.095 434.524 164V309.905C434.524 315.143 430.333 319.333 425.095 319.333H120.619C115.381 319.333 111.19 315.143 111.19 309.905V163.905C111.19 134.095 135.381 109.905 165.19 109.905Z" stroke="#E3E3E3" stroke-width="2.2354" stroke-miterlimit="10"/>
<path d="M171.286 126H374.238C398.905 126 418.905 146 418.905 170.667V319.238H126.714V170.667C126.714 146 146.714 126.095 171.286 126Z" fill="white"/>
<path d="M171.286 126H374.238C398.905 126 418.905 146 418.905 170.667V319.238H126.714V170.667C126.714 146 146.714 126.095 171.286 126Z" stroke="#E3E3E3" stroke-width="2.2354" stroke-miterlimit="10"/>
<path d="M435.857 319.238H476.81C476.81 319.238 473.572 341.238 456.333 341.238H90.6193C73.2859 341.238 70.1431 319.238 70.1431 319.238H435.857Z" fill="white"/>
<path d="M435.857 319.238H476.81C476.81 319.238 473.572 341.238 456.333 341.238H90.6193C73.2859 341.238 70.1431 319.238 70.1431 319.238H435.857Z" stroke="#E3E3E3" stroke-width="2.2354" stroke-miterlimit="10"/>
<path d="M270.81 126H372.333C398.048 126 418.905 146.857 418.905 172.571V317.905H270.81V126Z" fill="#2A41E8"/>
<path d="M326.238 267.143H294.048V271.429H326.238V267.143Z" fill="white"/>
<path d="M391.953 282.095H294.048V286.381H391.953V282.095Z" fill="white"/>
<path d="M362.715 296.952H294.048V301.238H362.715V296.952Z" fill="white"/>
<path d="M318.715 170.952C321.191 168.476 325.286 168.476 327.762 170.952L373.857 217.048C376.334 219.524 376.334 223.619 373.857 226.095C371.381 228.571 367.286 228.571 364.81 226.095L318.715 180C316.238 177.429 316.238 173.429 318.715 170.952Z" fill="white"/>
<path d="M318.715 216.952L364.81 170.857C367.286 168.381 371.381 168.381 373.857 170.857C376.334 173.333 376.334 177.429 373.857 179.905L327.762 226C325.286 228.476 321.191 228.476 318.715 226C316.238 223.524 316.238 219.524 318.715 216.952Z" fill="white"/>
<path d="M181 371.048H116.143C104.048 371.048 94.2383 360.381 94.2383 347.524V201.238C94.2383 188.286 104.048 177.714 116.143 177.714H181C193.095 177.714 202.905 188.381 202.905 201.238V347.524C202.905 360.476 193.095 371.048 181 371.048Z" fill="white"/>
<path d="M148.986 360.757C152.501 360.508 155.148 357.455 154.898 353.94C154.648 350.425 151.596 347.778 148.081 348.027C144.566 348.277 141.918 351.329 142.168 354.845C142.418 358.36 145.47 361.007 148.986 360.757Z" fill="#E3E3E3"/>
<path d="M179.952 214.572H162.905V218.857H179.952V214.572Z" fill="#E3E3E3"/>
<path d="M179.953 229.333H133.762V233.619H179.953V229.333Z" fill="#E3E3E3"/>
<path d="M179.952 244.095H146.81V248.381H179.952V244.095Z" fill="#E3E3E3"/>
<path d="M105.667 261.905H191.476V330.952C191.476 330.952 191.476 340.762 181.667 340.762C171.857 340.762 113.762 340.571 113.762 340.571C108.429 339.333 104.714 334.571 104.714 329.143C104.81 319.619 105.667 261.905 105.667 261.905Z" fill="#2A41E8"/>
<path d="M129.477 281.619C131.191 279.905 134.048 279.905 135.762 281.619L167.667 313.524C169.381 315.238 169.381 318.095 167.667 319.81C165.953 321.524 163.096 321.524 161.381 319.81L129.477 287.905C127.762 286.095 127.762 283.333 129.477 281.619Z" fill="white"/>
<path d="M129.477 313.524L161.381 281.619C163.096 279.905 165.953 279.905 167.667 281.619C169.381 283.333 169.381 286.191 167.667 287.905L135.762 319.81C134.048 321.524 131.191 321.524 129.477 319.81C127.762 318.095 127.762 315.238 129.477 313.524Z" fill="white"/>
<path d="M116.238 179.714C105.286 179.714 96.3335 189.333 96.3335 201.143V347.429C96.3335 359.238 105.286 368.857 116.238 368.857H180.905C191.857 368.857 200.81 359.238 200.81 347.429V201.238C200.81 189.429 191.857 179.81 180.905 179.81L116.238 179.714ZM180.905 371.048H116.238C104.143 371.048 94.3335 360.381 94.3335 347.524V201.238C94.3335 188.286 104.143 177.714 116.238 177.714H180.905C193 177.714 202.81 188.381 202.81 201.238V347.524C202.714 360.476 193 371.048 180.905 371.048Z" fill="#E3E3E3"/>
<path d="M115.477 191.143C110.048 191.143 105.667 195.524 105.667 200.952V331.048C105.667 336.476 110.048 340.857 115.477 340.857H181.762C187.191 340.857 191.572 336.476 191.572 331.048V201.048C191.572 195.619 187.191 191.238 181.762 191.238L115.477 191.143ZM181.667 342.857H115.381C108.81 342.857 103.477 337.524 103.477 330.952V201.048C103.477 194.476 108.81 189.143 115.381 189.143H181.667C188.238 189.143 193.572 194.476 193.572 201.048V331.143C193.572 337.619 188.238 342.857 181.667 342.857Z" fill="#E3E3E3"/>
</svg>
